<svg aria-hidden="true" style="position: absolute; width: 0; height: 0; overflow: hidden;" version="1.1" xmlns="http://www.w3.org/2000/svg" xmlns:xlink="http://www.w3.org/1999/xlink">
<defs>
<symbol id="icon-artist" viewBox="0 0 33 32">
<title>artist</title>
<path fill="#242d3c" style="fill: var(--color1, #242d3c)" d="M24.615 32l-6.072-14.605-1.641 0.656 5.744 13.949h1.969z"></path>
<path fill="#242d3c" style="fill: var(--color1, #242d3c)" d="M10.010 32l5.744-13.949-1.641-0.656-6.072 14.605h1.969z"></path>
<path fill="#242d3c" style="fill: var(--color1, #242d3c)" d="M11.815 25.6h8.862v1.149h-8.862v-1.149z"></path>
<path fill="#3e4959" style="fill: var(--color2, #3e4959)" d="M0 20.677h32.492v1.641h-32.492c0-0.164 0-1.641 0-1.641z"></path>
<path fill="#242d3c" style="fill: var(--color1, #242d3c)" d="M11.159 0h10.174v1.641h-10.174v-1.641z"></path>
<path fill="#fff" style="fill: var(--color3, #fff)" d="M2.133 1.641h28.062v19.036h-28.062v-19.036z"></path>
<path fill="#00c7ff" style="fill: var(--color4, #00c7ff)" d="M2.133 15.426h28.062v5.087h-28.062v-5.087z"></path>
<path fill="#3e4959" style="fill: var(--color2, #3e4959)" d="M14.113 12.964l-2.462 2.462h4.923l-2.462-2.462z"></path>
<path fill="#3e4959" style="fill: var(--color2, #3e4959)" d="M25.272 11.651l-3.774 3.774h7.549l-3.774-3.774z"></path>
<path fill="#242d3c" style="fill: var(--color1, #242d3c)" d="M8.862 9.682l-5.744 5.744h11.651l-5.908-5.744z"></path>
<path fill="#f9dc5c" style="fill: var(--color5, #f9dc5c)" d="M12.8 5.744c0 0.985-0.82 1.805-1.805 1.805s-1.805-0.821-1.805-1.805 0.82-1.805 1.805-1.805 1.805 0.821 1.805 1.805z"></path>
<path fill="#d9d8d7" style="fill: var(--color6, #d9d8d7)" d="M24.779 5.251v0c-0.164 0-0.164 0 0 0-0.164-0.492-0.492-0.985-0.985-0.985s-0.82 0.328-0.82 0.656h-0.164c-0.328 0-0.656 0.328-0.656 0.656s0.328 0.656 0.656 0.656h1.969c0.328 0 0.492-0.164 0.492-0.492s-0.164-0.492-0.492-0.492v0z"></path>
<path fill="#d9d8d7" style="fill: var(--color6, #d9d8d7)" d="M15.426 7.877v0 0c0-0.821 0.656-1.641 1.477-1.641 0.656 0 1.313 0.492 1.477 1.149 0.164 0 0.164-0.164 0.328-0.164 0.656 0.164 0.985 0.492 0.985 0.985 0 0.164 0 0.164 0 0.328v0c0.328 0 0.656 0.328 0.656 0.656-0.164 0.328-0.328 0.656-0.656 0.656h-4.267c-0.492 0-0.985-0.492-0.985-0.985s0.492-0.985 0.985-0.985v0z"></path>
</symbol>
<symbol id="icon-engineer" viewBox="0 0 31 32">
<title>engineer</title>
<path fill="#fff" style="fill: var(--color3, #fff)" d="M15.828 32l-7.914-4.473v-9.118l7.914 4.473v9.118z"></path>
<path fill="#f2f2f2" style="fill: var(--color7, #f2f2f2)" d="M15.828 13.935l-7.914 4.473 7.914 4.473 7.914-4.473-7.914-4.473z"></path>
<path fill="#d9d8d7" style="fill: var(--color6, #d9d8d7)" d="M15.828 32l7.914-4.473v-9.118l-7.914 4.473c0 0 0 9.118 0 9.118z"></path>
<path fill="#242d3c" style="fill: var(--color1, #242d3c)" d="M23.742 18.409l-7.914-4.473v-9.118l7.914 4.473c0 0 0 9.118 0 9.118z"></path>
<path fill="#f9dc5c" style="fill: var(--color5, #f9dc5c)" d="M23.742 0.344l-7.914 4.473 7.914 4.645 7.914-4.473-7.914-4.645z"></path>
<path fill="#ff6b97" style="fill: var(--color8, #ff6b97)" d="M23.742 18.409l7.742-4.473v-9.118l-7.742 4.473c0 0 0 9.118 0 9.118z"></path>
<path fill="#fff" style="fill: var(--color3, #fff)" d="M7.914 18.409v0l-7.914-4.473c0-0.172 0-0.172 0-0.172v-9.118c0 0 0 0 0-0.172s0 0 0.172 0l7.914 4.473c0 0 0 0 0 0.172l-0.172 9.29c0.172 0 0.172 0 0 0 0.172 0 0.172 0 0 0v0zM0.172 13.763l7.742 4.473v-8.946l-7.742-4.473v8.946z"></path>
<path fill="#fff" style="fill: var(--color3, #fff)" d="M7.914 9.29v0l-7.914-4.473c0 0 0 0 0-0.172s0 0 0-0.172l7.914-4.473c0 0 0 0 0.172 0l7.914 4.473c0 0 0 0 0 0.172 0 0 0 0 0 0.172l-8.086 4.473c0.172 0 0.172 0 0 0v0zM0.344 4.645l7.742 4.473 7.742-4.473-7.914-4.473-7.57 4.473z"></path>
<path fill="#fff" style="fill: var(--color3, #fff)" d="M15.828 13.935v0l-0.516-0.344v-0.172h0.172l0.516 0.344c0 0 0 0-0.172 0.172 0.172 0 0 0 0 0z"></path>
<path fill="#fff" style="fill: var(--color3, #fff)" d="M14.28 13.075v0l-0.86-0.688v-0.172h0.172l1.032 0.516c-0.172 0.172-0.172 0.172-0.344 0.344 0.172-0.172 0.172 0 0 0zM12.387 11.871v0l-1.032-0.516v-0.172h0.172l0.86 0.688c0.172-0.172 0.172-0.172 0 0 0.172 0 0 0 0 0zM10.495 10.839v0l-1.032-0.688v-0.172h0.172l1.032 0.516c-0.172 0.172 0 0.172-0.172 0.344 0-0.172 0 0 0 0z"></path>
<path fill="#fff" style="fill: var(--color3, #fff)" d="M8.602 9.634c0 0-0.172 0 0 0l-0.688-0.344-0.344 0.344h-0.172v-0.172l0.516-0.344c0 0 0 0 0.172 0l0.516 0.516c0-0.172 0-0.172 0 0v0 0z"></path>
<path fill="#fff" style="fill: var(--color3, #fff)" d="M1.548 13.075c0 0 0-0.172 0 0-0.172-0.172-0.172-0.172 0 0l1.032-0.688h0.172v0.172l-1.204 0.516c0.172 0 0.172 0 0 0zM3.613 11.871c0 0-0.172 0 0 0-0.172-0.172-0.172-0.172 0 0l0.86-0.688h0.172v0.172l-1.032 0.516zM5.505 10.839c0 0 0-0.172 0 0-0.172-0.172-0.172-0.172 0 0l1.032-0.688h0.172v0.172l-1.204 0.516z"></path>
<path fill="#fff" style="fill: var(--color3, #fff)" d="M0.172 13.935c-0.172 0-0.172 0 0 0-0.172-0.172-0.172-0.172-0.172-0.172l0.516-0.344h0.172v0.172l-0.516 0.344z"></path>
<path fill="#fff" style="fill: var(--color3, #fff)" d="M7.914 18.409v0 0-9.118c0 0 0 0 0-0.172l7.914-4.473c0 0 0 0 0.172 0s0 0 0 0.172v8.946c0 0 0 0 0 0.172l-8.086 4.473c0.172 0 0.172 0 0 0v0zM8.086 9.29v8.946l7.742-4.473v-8.946l-7.742 4.473z"></path>
<path fill="#fff" style="fill: var(--color3, #fff)" d="M7.914 0.86v0-0.688c0 0 0-0.172 0.172-0.172s0.172 0 0.172 0.172l-0.344 0.688c0.172 0 0.172 0 0 0z"></path>
<path fill="#fff" style="fill: var(--color3, #fff)" d="M7.914 7.57v0 0-1.204c0 0 0-0.172 0.172-0.172v0c0 0 0.172 0 0.172 0.172l-0.344 1.204c0.172 0 0.172 0 0 0zM7.914 5.333v0-1.204c0 0 0-0.172 0.172-0.172 0 0 0.172 0 0.172 0.172l-0.344 1.204c0.172 0 0.172 0 0 0zM7.914 3.097v0-1.204c0 0 0-0.172 0.172-0.172s0.172 0 0.172 0.172l-0.344 1.204c0.172 0 0.172 0 0 0z"></path>
<path fill="#fff" style="fill: var(--color3, #fff)" d="M7.914 9.29v0-0.688c0 0 0-0.172 0.172-0.172 0 0 0.172 0 0.172 0.172l-0.344 0.688c0.172 0 0.172 0 0 0z"></path>
</symbol>
<symbol id="icon-tbd" viewBox="0 0 59 32">
<title>tbd</title>
<path fill="#34495e" style="fill: var(--color9, #34495e)" d="M45.283 6.34c0 3.623-3.019 6.34-6.34 6.34s-6.34-2.717-6.34-6.34 3.019-6.34 6.34-6.34 6.34 2.717 6.34 6.34z"></path>
<path fill="#34495e" style="fill: var(--color9, #34495e)" d="M26.264 6.34c0 3.623-2.717 6.34-6.34 6.34s-6.34-2.717-6.34-6.34 2.717-6.34 6.34-6.34 6.34 2.717 6.34 6.34z"></path>
<path fill="#5d6d7e" style="fill: var(--color10, #5d6d7e)" d="M47.396 5.736c-0.906-0.906-1.811-1.811-3.019-2.113s-2.717-0.906-4.528-0.906h-0.604c-3.019 0-4.83 1.208-6.038 2.113-0.302 0.302-0.906 0.604-1.509 0.906s-1.208 0.604-1.811 0.604c0 0-0.906 0-0.906 0-0.604 0-1.208 0-1.811-0.302s-1.208-0.604-1.509-1.208c-1.208-0.906-3.019-2.113-6.34-2.113h-0.604c-1.509 0-3.321 0.302-4.528 0.906s-2.113 1.208-2.717 2.113l-10.868 12.679h57.358l-10.566-12.679z"></path>
<path fill="#283a4d" style="fill: var(--color11, #283a4d)" d="M38.038 12.377c-0.302 0-0.604 0-1.208 0s-0.604 0-1.208 0.302l-3.623 0.604c-0.906 0.302-1.811 0.302-2.717 0.302s-1.811 0-2.717-0.302l-3.623-0.604c-0.302 0-0.604 0-1.208-0.302-0.302 0-0.604 0-1.208 0h-1.811v10.566h3.019c0.604 0 0.906 0 1.509-0.302s0.906-0.604 1.208-0.906l1.811-2.415c0.906-0.604 1.811-1.208 3.019-1.208s2.113 0.604 3.019 1.509l1.811 2.415c0.302 0.302 0.604 0.604 1.208 0.906s0.906 0.302 1.509 0.302h3.019v-10.868h-1.811z"></path>
<path fill="#5d6d7e" style="fill: var(--color10, #5d6d7e)" d="M32.604 18.113c0 1.811-1.509 3.321-3.321 3.321s-3.321-1.509-3.321-3.321c0-1.811 1.509-3.321 3.321-3.321s3.321 1.509 3.321 3.321z"></path>
<path fill="#283a4d" style="fill: var(--color11, #283a4d)" d="M30.491 18.113c0 0.604-0.604 1.208-1.208 1.208s-0.906-0.604-0.906-1.208c0-0.604 0.604-1.208 1.208-1.208 0.302 0 0.906 0.604 0.906 1.208z"></path>
<path fill="#34495e" style="fill: var(--color9, #34495e)" d="M13.585 31.698c-6.038 1.208-12.075-2.717-13.283-8.755s2.717-12.075 8.755-13.283c6.038-1.208 12.075 2.717 13.283 8.755 1.509 6.038-2.717 12.075-8.755 13.283z"></path>
<path fill="#34495e" style="fill: var(--color9, #34495e)" d="M44.981 31.698c6.038 1.208 12.075-2.717 13.283-8.755s-2.717-12.075-8.755-13.283c-6.038-1.208-12.075 2.717-13.283 8.755s2.717 12.075 8.755 13.283z"></path>
<path fill="#b8d1e6" style="fill: var(--color12, #b8d1e6)" d="M11.472 29.283c-4.83 0-8.453-3.925-8.453-8.755-0.302-4.528 3.623-8.453 8.453-8.453s8.453 3.925 8.453 8.755c0 4.528-3.925 8.453-8.453 8.453z"></path>
<path fill="#e1effa" style="fill: var(--color13, #e1effa)" d="M11.472 28.075c-3.925 0-7.245-3.321-7.245-7.245s3.321-7.245 7.245-7.245 7.245 3.321 7.245 7.245c0 3.925-3.321 7.245-7.245 7.245z"></path>
<path fill="#b8d1e6" style="fill: var(--color12, #b8d1e6)" d="M47.396 29.283c-4.83 0-8.755-3.925-8.755-8.755s3.925-8.755 8.755-8.755c4.83 0 8.453 3.925 8.453 8.755s-3.925 8.755-8.453 8.755z"></path>
<path fill="#e1effa" style="fill: var(--color13, #e1effa)" d="M47.396 28.075c-3.925 0-7.245-3.321-7.245-7.245s3.321-7.245 7.245-7.245 7.245 3.321 7.245 7.245c0 3.925-3.321 7.245-7.245 7.245z"></path>
<path fill="#fff" style="fill: var(--color3, #fff)" d="M10.566 14.792c1.208 1.208 0.906 3.321-0.302 4.528s-3.623 1.811-4.83 0.604c-1.208-1.208-0.906-3.321 0.302-4.83 1.509-1.208 3.623-1.509 4.83-0.302z"></path>
<path fill="#fff" style="fill: var(--color3, #fff)" d="M17.208 24.453c0.302 0.302 0.302 1.208-0.302 1.811s-1.208 0.604-1.811 0-0.302-1.208 0.302-1.509c0.302-0.604 1.208-0.604 1.811-0.302z"></path>
<path fill="#fff" style="fill: var(--color3, #fff)" d="M46.491 14.792c1.208 1.208 0.906 3.321-0.302 4.528s-3.623 1.811-4.528 0.604c-1.208-1.208-0.906-3.321 0.302-4.528s3.321-1.811 4.528-0.604z"></path>
<path fill="#fff" style="fill: var(--color3, #fff)" d="M53.132 24.453c0.302 0.302 0.302 1.208 0 1.811-0.604 0.604-1.208 0.604-1.811 0s-0.302-1.208 0-1.811c0.604-0.302 1.208-0.302 1.811 0z"></path>
</symbol>
<symbol id="icon-visionary" viewBox="0 0 32 32">
<title>visionary</title>
<path fill="#fff" style="fill: var(--color3, #fff)" d="M16 9.12c-5.44 0-10.24 2.72-13.28 6.88 2.88 4.16 7.68 6.88 13.28 6.88s10.24-2.72 13.28-6.88c-3.040-4.16-7.84-6.88-13.28-6.88z"></path>
<path fill="#00c7ff" style="fill: var(--color4, #00c7ff)" d="M22.72 16c0 3.84-3.040 6.88-6.88 6.88s-6.72-3.040-6.72-6.88 3.040-6.88 6.88-6.88 6.72 3.040 6.72 6.88z"></path>
<path fill="#242d3c" style="fill: var(--color1, #242d3c)" d="M19.2 16c0 1.76-1.44 3.2-3.2 3.2s-3.2-1.44-3.2-3.2 1.44-3.2 3.2-3.2 3.2 1.44 3.2 3.2z"></path>
<path fill="#fff" style="fill: var(--color3, #fff)" d="M15.2 13.76c0 0.96-0.8 1.6-1.6 1.6-0.96 0-1.6-0.8-1.6-1.6 0-0.96 0.64-1.6 1.6-1.6s1.6 0.64 1.6 1.6z"></path>
<path fill="#fff" style="fill: var(--color3, #fff)" d="M15.68 0h0.48v1.76h-0.48v-1.76z"></path>
<path fill="#fff" style="fill: var(--color3, #fff)" d="M12.32 0.32h0.48l0.32 1.76h-0.32l-0.48-1.76z"></path>
<path fill="#fff" style="fill: var(--color3, #fff)" d="M9.28 1.44l0.32-0.16 0.64 1.6-0.32 0.16-0.64-1.6z"></path>
<path fill="#fff" style="fill: var(--color3, #fff)" d="M6.4 3.2l0.32-0.32 0.96 1.44-0.32 0.32-0.96-1.44z"></path>
<path fill="#fff" style="fill: var(--color3, #fff)" d="M3.84 5.44l0.32-0.32 1.28 1.12-0.32 0.32-1.28-1.12z"></path>
<path fill="#fff" style="fill: var(--color3, #fff)" d="M1.92 8.16l0.16-0.48 1.44 0.8v0.64l-1.6-0.96z"></path>
<path fill="#fff" style="fill: var(--color3, #fff)" d="M0.64 11.2l0.16-0.48 1.6 0.48-0.16 0.64-1.6-0.64z"></path>
<path fill="#fff" style="fill: var(--color3, #fff)" d="M0 14.56v-0.48l1.76 0.16v0.48l-1.76-0.16z"></path>
<path fill="#fff" style="fill: var(--color3, #fff)" d="M0 17.44l1.76-0.16v0.48l-1.76 0.16v-0.48z"></path>
<path fill="#fff" style="fill: var(--color3, #fff)" d="M0.64 20.64l1.6-0.48 0.16 0.48-1.6 0.48-0.16-0.48z"></path>
<path fill="#fff" style="fill: var(--color3, #fff)" d="M1.92 23.84l1.44-0.8 0.16 0.48-1.44 0.8c0.16-0.16-0.16-0.48-0.16-0.48z"></path>
<path fill="#fff" style="fill: var(--color3, #fff)" d="M3.84 26.56l1.28-1.12 0.32 0.32-1.28 1.12-0.32-0.32z"></path>
<path fill="#fff" style="fill: var(--color3, #fff)" d="M6.4 28.8l0.96-1.44 0.32 0.32-0.96 1.44-0.32-0.32z"></path>
<path fill="#fff" style="fill: var(--color3, #fff)" d="M9.28 30.56l0.64-1.6 0.48 0.16-0.64 1.6-0.48-0.16z"></path>
<path fill="#fff" style="fill: var(--color3, #fff)" d="M12.32 31.52l0.48-1.6 0.48 0.16-0.48 1.6-0.48-0.16z"></path>
<path fill="#fff" style="fill: var(--color3, #fff)" d="M15.68 30.24h0.48v1.76h-0.48v-1.76z"></path>
<path fill="#fff" style="fill: var(--color3, #fff)" d="M18.72 29.92l0.48-0.16 0.32 1.76-0.48 0.16-0.32-1.76z"></path>
<path fill="#fff" style="fill: var(--color3, #fff)" d="M21.44 29.12l0.48-0.16 0.64 1.6-0.48 0.16-0.64-1.6z"></path>
<path fill="#fff" style="fill: var(--color3, #fff)" d="M24.16 27.68l0.32-0.32 0.96 1.44-0.32 0.32-0.96-1.44z"></path>
<path fill="#fff" style="fill: var(--color3, #fff)" d="M26.4 25.76l0.32-0.32 1.28 1.12-0.32 0.32-1.28-1.12z"></path>
<path fill="#fff" style="fill: var(--color3, #fff)" d="M28.16 23.36l0.16-0.48 1.44 0.8-0.16 0.48-1.44-0.8z"></path>
<path fill="#fff" style="fill: var(--color3, #fff)" d="M29.44 20.64l0.16-0.48 1.6 0.48-0.16 0.48-1.6-0.48z"></path>
<path fill="#fff" style="fill: var(--color3, #fff)" d="M30.080 17.76v-0.48l1.76 0.16v0.48l-1.76-0.16z"></path>
<path fill="#fff" style="fill: var(--color3, #fff)" d="M30.080 14.24l1.76-0.16v0.48l-1.76 0.16v-0.48z"></path>
<path fill="#fff" style="fill: var(--color3, #fff)" d="M29.44 11.36l1.6-0.48 0.16 0.32-1.6 0.48-0.16-0.32z"></path>
<path fill="#fff" style="fill: var(--color3, #fff)" d="M28.16 8.64l1.44-0.8 0.16 0.48-1.44 0.8-0.16-0.48z"></path>
<path fill="#fff" style="fill: var(--color3, #fff)" d="M26.4 6.24l1.28-1.12 0.32 0.32-1.28 1.12-0.32-0.32z"></path>
<path fill="#fff" style="fill: var(--color3, #fff)" d="M24.16 4.32l0.96-1.44 0.48 0.32-0.96 1.44-0.48-0.32z"></path>
<path fill="#fff" style="fill: var(--color3, #fff)" d="M21.44 2.88l0.64-1.6 0.48 0.16-0.64 1.6-0.48-0.16z"></path>
<path fill="#fff" style="fill: var(--color3, #fff)" d="M18.72 2.080l0.32-1.76 0.48 0.16-0.32 1.6h-0.48z"></path>
</symbol>
</defs>
</svg>
