<svg aria-hidden="true" style="position: absolute; width: 0; height: 0; overflow: hidden;" version="1.1" xmlns="http://www.w3.org/2000/svg" xmlns:xlink="http://www.w3.org/1999/xlink">
<defs>
<symbol id="artist" viewBox="0 0 33 32">
<title>artist</title>
<path fill="#242d3c" style="fill: var(--color1, #242d3c)" d="M24.615 32l-6.072-14.605-1.641 0.656 5.744 13.949h1.969z"></path>
<path fill="#242d3c" style="fill: var(--color1, #242d3c)" d="M10.010 32l5.744-13.949-1.641-0.656-6.072 14.605h1.969z"></path>
<path fill="#242d3c" style="fill: var(--color1, #242d3c)" d="M11.815 25.6h8.862v1.149h-8.862v-1.149z"></path>
<path fill="#3e4959" style="fill: var(--color2, #3e4959)" d="M0 20.677h32.492v1.641h-32.492c0-0.164 0-1.641 0-1.641z"></path>
<path fill="#242d3c" style="fill: var(--color1, #242d3c)" d="M11.159 0h10.174v1.641h-10.174v-1.641z"></path>
<path fill="#fff" style="fill: var(--color3, #fff)" d="M2.133 1.641h28.062v19.036h-28.062v-19.036z"></path>
<path fill="#00c7ff" style="fill: var(--color4, #00c7ff)" d="M2.133 15.426h28.062v5.087h-28.062v-5.087z"></path>
<path fill="#3e4959" style="fill: var(--color2, #3e4959)" d="M14.113 12.964l-2.462 2.462h4.923l-2.462-2.462z"></path>
<path fill="#3e4959" style="fill: var(--color2, #3e4959)" d="M25.272 11.651l-3.774 3.774h7.549l-3.774-3.774z"></path>
<path fill="#242d3c" style="fill: var(--color1, #242d3c)" d="M8.862 9.682l-5.744 5.744h11.651l-5.908-5.744z"></path>
<path fill="#f9dc5c" style="fill: var(--color5, #f9dc5c)" d="M12.8 5.744c0 0.985-0.82 1.805-1.805 1.805s-1.805-0.821-1.805-1.805 0.82-1.805 1.805-1.805 1.805 0.821 1.805 1.805z"></path>
<path fill="#d9d8d7" style="fill: var(--color6, #d9d8d7)" d="M24.779 5.251v0c-0.164 0-0.164 0 0 0-0.164-0.492-0.492-0.985-0.985-0.985s-0.82 0.328-0.82 0.656h-0.164c-0.328 0-0.656 0.328-0.656 0.656s0.328 0.656 0.656 0.656h1.969c0.328 0 0.492-0.164 0.492-0.492s-0.164-0.492-0.492-0.492v0z"></path>
<path fill="#d9d8d7" style="fill: var(--color6, #d9d8d7)" d="M15.426 7.877v0 0c0-0.821 0.656-1.641 1.477-1.641 0.656 0 1.313 0.492 1.477 1.149 0.164 0 0.164-0.164 0.328-0.164 0.656 0.164 0.985 0.492 0.985 0.985 0 0.164 0 0.164 0 0.328v0c0.328 0 0.656 0.328 0.656 0.656-0.164 0.328-0.328 0.656-0.656 0.656h-4.267c-0.492 0-0.985-0.492-0.985-0.985s0.492-0.985 0.985-0.985v0z"></path>
</symbol>
<symbol id="engineer" viewBox="0 0 31 32">
<title>engineer</title>
<path fill="#fff" style="fill: var(--color3, #fff)" d="M15.828 32l-7.914-4.473v-9.118l7.914 4.473v9.118z"></path>
<path fill="#f2f2f2" style="fill: var(--color7, #f2f2f2)" d="M15.828 13.935l-7.914 4.473 7.914 4.473 7.914-4.473-7.914-4.473z"></path>
<path fill="#d9d8d7" style="fill: var(--color6, #d9d8d7)" d="M15.828 32l7.914-4.473v-9.118l-7.914 4.473c0 0 0 9.118 0 9.118z"></path>
<path fill="#242d3c" style="fill: var(--color1, #242d3c)" d="M23.742 18.409l-7.914-4.473v-9.118l7.914 4.473c0 0 0 9.118 0 9.118z"></path>
<path fill="#f9dc5c" style="fill: var(--color5, #f9dc5c)" d="M23.742 0.344l-7.914 4.473 7.914 4.645 7.914-4.473-7.914-4.645z"></path>
<path fill="#ff6b97" style="fill: var(--color8, #ff6b97)" d="M23.742 18.409l7.742-4.473v-9.118l-7.742 4.473c0 0 0 9.118 0 9.118z"></path>
<path fill="#fff" style="fill: var(--color3, #fff)" d="M7.914 18.409v0l-7.914-4.473c0-0.172 0-0.172 0-0.172v-9.118c0 0 0 0 0-0.172s0 0 0.172 0l7.914 4.473c0 0 0 0 0 0.172l-0.172 9.29c0.172 0 0.172 0 0 0 0.172 0 0.172 0 0 0v0zM0.172 13.763l7.742 4.473v-8.946l-7.742-4.473v8.946z"></path>
<path fill="#fff" style="fill: var(--color3, #fff)" d="M7.914 9.29v0l-7.914-4.473c0 0 0 0 0-0.172s0 0 0-0.172l7.914-4.473c0 0 0 0 0.172 0l7.914 4.473c0 0 0 0 0 0.172 0 0 0 0 0 0.172l-8.086 4.473c0.172 0 0.172 0 0 0v0zM0.344 4.645l7.742 4.473 7.742-4.473-7.914-4.473-7.57 4.473z"></path>
<path fill="#fff" style="fill: var(--color3, #fff)" d="M15.828 13.935v0l-0.516-0.344v-0.172h0.172l0.516 0.344c0 0 0 0-0.172 0.172 0.172 0 0 0 0 0z"></path>
<path fill="#fff" style="fill: var(--color3, #fff)" d="M14.28 13.075v0l-0.86-0.688v-0.172h0.172l1.032 0.516c-0.172 0.172-0.172 0.172-0.344 0.344 0.172-0.172 0.172 0 0 0zM12.387 11.871v0l-1.032-0.516v-0.172h0.172l0.86 0.688c0.172-0.172 0.172-0.172 0 0 0.172 0 0 0 0 0zM10.495 10.839v0l-1.032-0.688v-0.172h0.172l1.032 0.516c-0.172 0.172 0 0.172-0.172 0.344 0-0.172 0 0 0 0z"></path>
<path fill="#fff" style="fill: var(--color3, #fff)" d="M8.602 9.634c0 0-0.172 0 0 0l-0.688-0.344-0.344 0.344h-0.172v-0.172l0.516-0.344c0 0 0 0 0.172 0l0.516 0.516c0-0.172 0-0.172 0 0v0 0z"></path>
<path fill="#fff" style="fill: var(--color3, #fff)" d="M1.548 13.075c0 0 0-0.172 0 0-0.172-0.172-0.172-0.172 0 0l1.032-0.688h0.172v0.172l-1.204 0.516c0.172 0 0.172 0 0 0zM3.613 11.871c0 0-0.172 0 0 0-0.172-0.172-0.172-0.172 0 0l0.86-0.688h0.172v0.172l-1.032 0.516zM5.505 10.839c0 0 0-0.172 0 0-0.172-0.172-0.172-0.172 0 0l1.032-0.688h0.172v0.172l-1.204 0.516z"></path>
<path fill="#fff" style="fill: var(--color3, #fff)" d="M0.172 13.935c-0.172 0-0.172 0 0 0-0.172-0.172-0.172-0.172-0.172-0.172l0.516-0.344h0.172v0.172l-0.516 0.344z"></path>
<path fill="#fff" style="fill: var(--color3, #fff)" d="M7.914 18.409v0 0-9.118c0 0 0 0 0-0.172l7.914-4.473c0 0 0 0 0.172 0s0 0 0 0.172v8.946c0 0 0 0 0 0.172l-8.086 4.473c0.172 0 0.172 0 0 0v0zM8.086 9.29v8.946l7.742-4.473v-8.946l-7.742 4.473z"></path>
<path fill="#fff" style="fill: var(--color3, #fff)" d="M7.914 0.86v0-0.688c0 0 0-0.172 0.172-0.172s0.172 0 0.172 0.172l-0.344 0.688c0.172 0 0.172 0 0 0z"></path>
<path fill="#fff" style="fill: var(--color3, #fff)" d="M7.914 7.57v0 0-1.204c0 0 0-0.172 0.172-0.172v0c0 0 0.172 0 0.172 0.172l-0.344 1.204c0.172 0 0.172 0 0 0zM7.914 5.333v0-1.204c0 0 0-0.172 0.172-0.172 0 0 0.172 0 0.172 0.172l-0.344 1.204c0.172 0 0.172 0 0 0zM7.914 3.097v0-1.204c0 0 0-0.172 0.172-0.172s0.172 0 0.172 0.172l-0.344 1.204c0.172 0 0.172 0 0 0z"></path>
<path fill="#fff" style="fill: var(--color3, #fff)" d="M7.914 9.29v0-0.688c0 0 0-0.172 0.172-0.172 0 0 0.172 0 0.172 0.172l-0.344 0.688c0.172 0 0.172 0 0 0z"></path>
</symbol>
<symbol id="tbd" viewBox="0 0 59 32">
<title>tbd</title>
<path fill="#34495e" style="fill: var(--color9, #34495e)" d="M45.283 6.34c0 3.623-3.019 6.34-6.34 6.34s-6.34-2.717-6.34-6.34 3.019-6.34 6.34-6.34 6.34 2.717 6.34 6.34z"></path>
<path fill="#34495e" style="fill: var(--color9, #34495e)" d="M26.264 6.34c0 3.623-2.717 6.34-6.34 6.34s-6.34-2.717-6.34-6.34 2.717-6.34 6.34-6.34 6.34 2.717 6.34 6.34z"></path>
<path fill="#5d6d7e" style="fill: var(--color10, #5d6d7e)" d="M47.396 5.736c-0.906-0.906-1.811-1.811-3.019-2.113s-2.717-0.906-4.528-0.906h-0.604c-3.019 0-4.83 1.208-6.038 2.113-0.302 0.302-0.906 0.604-1.509 0.906s-1.208 0.604-1.811 0.604c0 0-0.906 0-0.906 0-0.604 0-1.208 0-1.811-0.302s-1.208-0.604-1.509-1.208c-1.208-0.906-3.019-2.113-6.34-2.113h-0.604c-1.509 0-3.321 0.302-4.528 0.906s-2.113 1.208-2.717 2.113l-10.868 12.679h57.358l-10.566-12.679z"></path>
<path fill="#283a4d" style="fill: var(--color11, #283a4d)" d="M38.038 12.377c-0.302 0-0.604 0-1.208 0s-0.604 0-1.208 0.302l-3.623 0.604c-0.906 0.302-1.811 0.302-2.717 0.302s-1.811 0-2.717-0.302l-3.623-0.604c-0.302 0-0.604 0-1.208-0.302-0.302 0-0.604 0-1.208 0h-1.811v10.566h3.019c0.604 0 0.906 0 1.509-0.302s0.906-0.604 1.208-0.906l1.811-2.415c0.906-0.604 1.811-1.208 3.019-1.208s2.113 0.604 3.019 1.509l1.811 2.415c0.302 0.302 0.604 0.604 1.208 0.906s0.906 0.302 1.509 0.302h3.019v-10.868h-1.811z"></path>
<path fill="#5d6d7e" style="fill: var(--color10, #5d6d7e)" d="M32.604 18.113c0 1.811-1.509 3.321-3.321 3.321s-3.321-1.509-3.321-3.321c0-1.811 1.509-3.321 3.321-3.321s3.321 1.509 3.321 3.321z"></path>
<path fill="#283a4d" style="fill: var(--color11, #283a4d)" d="M30.491 18.113c0 0.604-0.604 1.208-1.208 1.208s-0.906-0.604-0.906-1.208c0-0.604 0.604-1.208 1.208-1.208 0.302 0 0.906 0.604 0.906 1.208z"></path>
<path fill="#34495e" style="fill: var(--color9, #34495e)" d="M13.585 31.698c-6.038 1.208-12.075-2.717-13.283-8.755s2.717-12.075 8.755-13.283c6.038-1.208 12.075 2.717 13.283 8.755 1.509 6.038-2.717 12.075-8.755 13.283z"></path>
<path fill="#34495e" style="fill: var(--color9, #34495e)" d="M44.981 31.698c6.038 1.208 12.075-2.717 13.283-8.755s-2.717-12.075-8.755-13.283c-6.038-1.208-12.075 2.717-13.283 8.755s2.717 12.075 8.755 13.283z"></path>
<path fill="#b8d1e6" style="fill: var(--color12, #b8d1e6)" d="M11.472 29.283c-4.83 0-8.453-3.925-8.453-8.755-0.302-4.528 3.623-8.453 8.453-8.453s8.453 3.925 8.453 8.755c0 4.528-3.925 8.453-8.453 8.453z"></path>
<path fill="#e1effa" style="fill: var(--color13, #e1effa)" d="M11.472 28.075c-3.925 0-7.245-3.321-7.245-7.245s3.321-7.245 7.245-7.245 7.245 3.321 7.245 7.245c0 3.925-3.321 7.245-7.245 7.245z"></path>
<path fill="#b8d1e6" style="fill: var(--color12, #b8d1e6)" d="M47.396 29.283c-4.83 0-8.755-3.925-8.755-8.755s3.925-8.755 8.755-8.755c4.83 0 8.453 3.925 8.453 8.755s-3.925 8.755-8.453 8.755z"></path>
<path fill="#e1effa" style="fill: var(--color13, #e1effa)" d="M47.396 28.075c-3.925 0-7.245-3.321-7.245-7.245s3.321-7.245 7.245-7.245 7.245 3.321 7.245 7.245c0 3.925-3.321 7.245-7.245 7.245z"></path>
<path fill="#fff" style="fill: var(--color3, #fff)" d="M10.566 14.792c1.208 1.208 0.906 3.321-0.302 4.528s-3.623 1.811-4.83 0.604c-1.208-1.208-0.906-3.321 0.302-4.83 1.509-1.208 3.623-1.509 4.83-0.302z"></path>
<path fill="#fff" style="fill: var(--color3, #fff)" d="M17.208 24.453c0.302 0.302 0.302 1.208-0.302 1.811s-1.208 0.604-1.811 0-0.302-1.208 0.302-1.509c0.302-0.604 1.208-0.604 1.811-0.302z"></path>
<path fill="#fff" style="fill: var(--color3, #fff)" d="M46.491 14.792c1.208 1.208 0.906 3.321-0.302 4.528s-3.623 1.811-4.528 0.604c-1.208-1.208-0.906-3.321 0.302-4.528s3.321-1.811 4.528-0.604z"></path>
<path fill="#fff" style="fill: var(--color3, #fff)" d="M53.132 24.453c0.302 0.302 0.302 1.208 0 1.811-0.604 0.604-1.208 0.604-1.811 0s-0.302-1.208 0-1.811c0.604-0.302 1.208-0.302 1.811 0z"></path>
</symbol>
<symbol id="visionary" viewBox="0 0 32 32">
<title>visionary</title>
<path fill="#fff" style="fill: var(--color3, #fff)" d="M16 9.12c-5.44 0-10.24 2.72-13.28 6.88 2.88 4.16 7.68 6.88 13.28 6.88s10.24-2.72 13.28-6.88c-3.040-4.16-7.84-6.88-13.28-6.88z"></path>
<path fill="#00c7ff" style="fill: var(--color4, #00c7ff)" d="M22.72 16c0 3.84-3.040 6.88-6.88 6.88s-6.72-3.040-6.72-6.88 3.040-6.88 6.88-6.88 6.72 3.040 6.72 6.88z"></path>
<path fill="#242d3c" style="fill: var(--color1, #242d3c)" d="M19.2 16c0 1.76-1.44 3.2-3.2 3.2s-3.2-1.44-3.2-3.2 1.44-3.2 3.2-3.2 3.2 1.44 3.2 3.2z"></path>
<path fill="#fff" style="fill: var(--color3, #fff)" d="M15.2 13.76c0 0.96-0.8 1.6-1.6 1.6-0.96 0-1.6-0.8-1.6-1.6 0-0.96 0.64-1.6 1.6-1.6s1.6 0.64 1.6 1.6z"></path>
<path fill="#fff" style="fill: var(--color3, #fff)" d="M15.68 0h0.48v1.76h-0.48v-1.76z"></path>
<path fill="#fff" style="fill: var(--color3, #fff)" d="M12.32 0.32h0.48l0.32 1.76h-0.32l-0.48-1.76z"></path>
<path fill="#fff" style="fill: var(--color3, #fff)" d="M9.28 1.44l0.32-0.16 0.64 1.6-0.32 0.16-0.64-1.6z"></path>
<path fill="#fff" style="fill: var(--color3, #fff)" d="M6.4 3.2l0.32-0.32 0.96 1.44-0.32 0.32-0.96-1.44z"></path>
<path fill="#fff" style="fill: var(--color3, #fff)" d="M3.84 5.44l0.32-0.32 1.28 1.12-0.32 0.32-1.28-1.12z"></path>
<path fill="#fff" style="fill: var(--color3, #fff)" d="M1.92 8.16l0.16-0.48 1.44 0.8v0.64l-1.6-0.96z"></path>
<path fill="#fff" style="fill: var(--color3, #fff)" d="M0.64 11.2l0.16-0.48 1.6 0.48-0.16 0.64-1.6-0.64z"></path>
<path fill="#fff" style="fill: var(--color3, #fff)" d="M0 14.56v-0.48l1.76 0.16v0.48l-1.76-0.16z"></path>
<path fill="#fff" style="fill: var(--color3, #fff)" d="M0 17.44l1.76-0.16v0.48l-1.76 0.16v-0.48z"></path>
<path fill="#fff" style="fill: var(--color3, #fff)" d="M0.64 20.64l1.6-0.48 0.16 0.48-1.6 0.48-0.16-0.48z"></path>
<path fill="#fff" style="fill: var(--color3, #fff)" d="M1.92 23.84l1.44-0.8 0.16 0.48-1.44 0.8c0.16-0.16-0.16-0.48-0.16-0.48z"></path>
<path fill="#fff" style="fill: var(--color3, #fff)" d="M3.84 26.56l1.28-1.12 0.32 0.32-1.28 1.12-0.32-0.32z"></path>
<path fill="#fff" style="fill: var(--color3, #fff)" d="M6.4 28.8l0.96-1.44 0.32 0.32-0.96 1.44-0.32-0.32z"></path>
<path fill="#fff" style="fill: var(--color3, #fff)" d="M9.28 30.56l0.64-1.6 0.48 0.16-0.64 1.6-0.48-0.16z"></path>
<path fill="#fff" style="fill: var(--color3, #fff)" d="M12.32 31.52l0.48-1.6 0.48 0.16-0.48 1.6-0.48-0.16z"></path>
<path fill="#fff" style="fill: var(--color3, #fff)" d="M15.68 30.24h0.48v1.76h-0.48v-1.76z"></path>
<path fill="#fff" style="fill: var(--color3, #fff)" d="M18.72 29.92l0.48-0.16 0.32 1.76-0.48 0.16-0.32-1.76z"></path>
<path fill="#fff" style="fill: var(--color3, #fff)" d="M21.44 29.12l0.48-0.16 0.64 1.6-0.48 0.16-0.64-1.6z"></path>
<path fill="#fff" style="fill: var(--color3, #fff)" d="M24.16 27.68l0.32-0.32 0.96 1.44-0.32 0.32-0.96-1.44z"></path>
<path fill="#fff" style="fill: var(--color3, #fff)" d="M26.4 25.76l0.32-0.32 1.28 1.12-0.32 0.32-1.28-1.12z"></path>
<path fill="#fff" style="fill: var(--color3, #fff)" d="M28.16 23.36l0.16-0.48 1.44 0.8-0.16 0.48-1.44-0.8z"></path>
<path fill="#fff" style="fill: var(--color3, #fff)" d="M29.44 20.64l0.16-0.48 1.6 0.48-0.16 0.48-1.6-0.48z"></path>
<path fill="#fff" style="fill: var(--color3, #fff)" d="M30.080 17.76v-0.48l1.76 0.16v0.48l-1.76-0.16z"></path>
<path fill="#fff" style="fill: var(--color3, #fff)" d="M30.080 14.24l1.76-0.16v0.48l-1.76 0.16v-0.48z"></path>
<path fill="#fff" style="fill: var(--color3, #fff)" d="M29.44 11.36l1.6-0.48 0.16 0.32-1.6 0.48-0.16-0.32z"></path>
<path fill="#fff" style="fill: var(--color3, #fff)" d="M28.16 8.64l1.44-0.8 0.16 0.48-1.44 0.8-0.16-0.48z"></path>
<path fill="#fff" style="fill: var(--color3, #fff)" d="M26.4 6.24l1.28-1.12 0.32 0.32-1.28 1.12-0.32-0.32z"></path>
<path fill="#fff" style="fill: var(--color3, #fff)" d="M24.16 4.32l0.96-1.44 0.48 0.32-0.96 1.44-0.48-0.32z"></path>
<path fill="#fff" style="fill: var(--color3, #fff)" d="M21.44 2.88l0.64-1.6 0.48 0.16-0.64 1.6-0.48-0.16z"></path>
<path fill="#fff" style="fill: var(--color3, #fff)" d="M18.72 2.080l0.32-1.76 0.48 0.16-0.32 1.6h-0.48z"></path>
</symbol>
<symbol id="dribbble" viewBox="0 0 20 20">
<title>dribbble</title>
<path d="M9.565 7.421c-1.358-2.414-2.811-4.383-2.917-4.528-2.191 1.036-3.826 3.055-4.337 5.487 0.206 0.004 3.482 0.043 7.254-0.959zM10.543 10.061c0.102-0.033 0.206-0.064 0.309-0.094-0.197-0.447-0.412-0.895-0.637-1.336-4.046 1.212-7.928 1.124-8.065 1.12-0.003 0.084-0.007 0.166-0.007 0.25 0 2.019 0.763 3.861 2.016 5.252l-0.005-0.006c0 0 2.15-3.814 6.389-5.186zM5.171 16.194v-0.004c-0.058-0.045-0.12-0.086-0.178-0.135 0.106 0.085 0.178 0.139 0.178 0.139zM8.118 2.372c-0.007 0.002-0.015 0.004-0.015 0.004 0.006-0.002 0.014-0.002 0.014-0.002l0.001-0.002zM15.189 4.104c-1.384-1.218-3.199-1.961-5.189-1.961-0.639 0-1.258 0.078-1.852 0.221 0.12 0.16 1.595 2.119 2.938 4.584 2.962-1.109 4.081-2.812 4.103-2.844zM10 19.2c-5.080 0-9.199-4.119-9.199-9.199-0.001-5.082 4.118-9.201 9.199-9.201s9.2 4.119 9.2 9.201c0 5.080-4.118 9.199-9.2 9.199zM11.336 11.286c-4.611 1.607-6.134 4.838-6.165 4.904 1.334 1.041 3.006 1.666 4.828 1.666 1.088 0 2.125-0.221 3.067-0.621-0.116-0.689-0.573-3.096-1.679-5.967-0.016 0.006-0.033 0.012-0.051 0.018zM11.69 8.12c0.184 0.373 0.358 0.754 0.523 1.139 0.059 0.135 0.114 0.272 0.17 0.406 2.713-0.342 5.385 0.238 5.473 0.256-0.019-1.863-0.686-3.572-1.787-4.912-0.018 0.023-1.279 1.843-4.379 3.111zM12.861 10.905c1.031 2.836 1.449 5.142 1.529 5.611 1.764-1.191 3.018-3.080 3.367-5.27-0.156-0.050-2.356-0.747-4.896-0.341z"></path>
</symbol>
<symbol id="github" viewBox="0 0 20 20">
<title>github</title>
<path d="M13.18 11.309c-0.718 0-1.3 0.807-1.3 1.799 0 0.994 0.582 1.801 1.3 1.801s1.3-0.807 1.3-1.801c-0.001-0.992-0.582-1.799-1.3-1.799zM17.706 6.626c0.149-0.365 0.155-2.439-0.635-4.426 0 0-1.811 0.199-4.551 2.080-0.575-0.16-1.548-0.238-2.519-0.238-0.973 0-1.945 0.078-2.52 0.238-2.741-1.881-4.552-2.080-4.552-2.080-0.789 1.987-0.781 4.061-0.634 4.426-0.928 1.008-1.495 2.219-1.495 3.871 0 7.186 5.963 7.301 7.467 7.301 0.342 0 1.018 0.002 1.734 0.002s1.392-0.002 1.732-0.002c1.506 0 7.467-0.115 7.467-7.301 0-1.652-0.566-2.863-1.494-3.871zM10.028 16.915h-0.056c-3.771 0-6.709-0.449-6.709-4.115 0-0.879 0.31-1.693 1.047-2.369 1.227-1.127 3.305-0.531 5.662-0.531 0.010 0 0.020 0 0.029 0s0.018 0 0.027 0c2.357 0 4.436-0.596 5.664 0.531 0.735 0.676 1.045 1.49 1.045 2.369 0 3.666-2.937 4.115-6.709 4.115zM6.821 11.309c-0.718 0-1.3 0.807-1.3 1.799 0 0.994 0.582 1.801 1.3 1.801s1.301-0.807 1.301-1.801c0-0.992-0.582-1.799-1.301-1.799z"></path>
</symbol>
<symbol id="linkedin" viewBox="0 0 20 20">
<title>linkedin</title>
<path d="M5 3c0 1.062-0.71 1.976-2.001 1.976-1.215 0-1.999-0.862-1.999-1.924 0-1.090 0.76-2.052 2-2.052s1.976 0.91 2 2zM1 19v-13h4v13h-4z"></path>
<path d="M7 10.444c0-1.545-0.051-2.836-0.102-3.951h3.594l0.178 1.723h0.076c0.506-0.811 1.746-2 3.822-2 2.532 0 4.432 1.695 4.432 5.342v7.442h-4v-6.861c0-1.594-0.607-2.81-2-2.81-1.062 0-1.594 0.86-1.873 1.569-0.102 0.254-0.127 0.608-0.127 0.963v7.139h-4v-8.556z"></path>
</symbol>
<symbol id="twitter" viewBox="0 0 20 20">
<title>twitter</title>
<path d="M17.316 6.246c0.008 0.162 0.011 0.326 0.011 0.488 0 4.99-3.797 10.742-10.74 10.742-2.133 0-4.116-0.625-5.787-1.697 0.296 0.035 0.596 0.053 0.9 0.053 1.77 0 3.397-0.604 4.688-1.615-1.651-0.031-3.046-1.121-3.526-2.621 0.23 0.043 0.467 0.066 0.71 0.066 0.345 0 0.679-0.045 0.995-0.131-1.727-0.348-3.028-1.873-3.028-3.703 0-0.016 0-0.031 0-0.047 0.509 0.283 1.092 0.453 1.71 0.473-1.013-0.678-1.68-1.832-1.68-3.143 0-0.691 0.186-1.34 0.512-1.898 1.861 2.285 4.644 3.787 7.781 3.945-0.064-0.277-0.097-0.564-0.097-0.861 0-2.084 1.689-3.773 3.774-3.773 1.086 0 2.067 0.457 2.756 1.191 0.859-0.17 1.667-0.484 2.397-0.916-0.282 0.881-0.881 1.621-1.66 2.088 0.764-0.092 1.49-0.293 2.168-0.594-0.506 0.758-1.146 1.422-1.884 1.953z"></path>
</symbol>
<symbol id="paper-plane" viewBox="0 0 20 20">
<title>paper-plane</title>
<path d="M18.64 2.634c-0.344 0.121-17.321 6.104-17.656 6.222-0.284 0.1-0.347 0.345-0.010 0.479 0.401 0.161 3.796 1.521 3.796 1.521v0l2.25 0.901c0 0 10.838-7.958 10.984-8.066 0.148-0.108 0.318 0.095 0.211 0.211s-7.871 8.513-7.871 8.513v0.002l-0.452 0.503 0.599 0.322c0 0 4.65 2.504 4.982 2.682 0.291 0.156 0.668 0.027 0.752-0.334 0.099-0.426 2.845-12.261 2.906-12.525 0.079-0.343-0.148-0.552-0.491-0.431zM7 17.162c0 0.246 0.139 0.315 0.331 0.141 0.251-0.229 2.85-2.561 2.85-2.561l-3.181-1.644v4.064z"></path>
</symbol>
<symbol id="chat" viewBox="0 0 20 20">
<title>chat</title>
<path d="M5.8 12.2v-6.2h-3.8c-1.1 0-2 0.9-2 2v6c0 1.1 0.9 2 2 2h1v3l3-3h5c1.1 0 2-0.9 2-2v-1.82c-0.064 0.014-0.132 0.021-0.2 0.021l-7-0.001zM18 1h-9c-1.1 0-2 0.9-2 2v8h7l3 3v-3h1c1.1 0 2-0.899 2-2v-6c0-1.1-0.9-2-2-2z"></path>
</symbol>
<symbol id="message" viewBox="0 0 20 20">
<title>message</title>
<path d="M18 6v7c0 1.1-0.9 2-2 2h-4v3l-4-3h-4c-1.101 0-2-0.9-2-2v-7c0-1.1 0.899-2 2-2h12c1.1 0 2 0.9 2 2z"></path>
</symbol>
<symbol id="minus-circle" viewBox="0 0 20 20">
<title>minus-circle</title>
<path d="M10 1.6c-4.639 0-8.4 3.761-8.4 8.4s3.761 8.4 8.4 8.4 8.4-3.761 8.4-8.4c0-4.639-3.761-8.4-8.4-8.4zM15 11h-10v-2h10v2z"></path>
</symbol>
<symbol id="x" viewBox="0 0 20 20">
<title>x</title>
<path d="M14.348 14.849c-0.469 0.469-1.229 0.469-1.697 0l-2.651-3.030-2.651 3.029c-0.469 0.469-1.229 0.469-1.697 0-0.469-0.469-0.469-1.229 0-1.697l2.758-3.15-2.759-3.152c-0.469-0.469-0.469-1.228 0-1.697s1.228-0.469 1.697 0l2.652 3.031 2.651-3.031c0.469-0.469 1.228-0.469 1.697 0s0.469 1.229 0 1.697l-2.758 3.152 2.758 3.15c0.469 0.469 0.469 1.229 0 1.698z"></path>
</symbol>
<symbol id="face-smile" viewBox="0 0 20 20">
<title>face-smile</title>
<path d="M10 0.4c-5.302 0-9.6 4.298-9.6 9.6s4.298 9.6 9.6 9.6c5.301 0 9.6-4.298 9.6-9.601 0-5.301-4.299-9.599-9.6-9.599zM10 17.599c-4.197 0-7.6-3.402-7.6-7.6s3.402-7.599 7.6-7.599c4.197 0 7.601 3.402 7.601 7.6s-3.404 7.599-7.601 7.599zM7.501 9.75c0.828 0 1.499-0.783 1.499-1.75s-0.672-1.75-1.5-1.75-1.5 0.783-1.5 1.75 0.672 1.75 1.501 1.75zM12.5 9.75c0.829 0 1.5-0.783 1.5-1.75s-0.672-1.75-1.5-1.75-1.5 0.784-1.5 1.75 0.672 1.75 1.5 1.75zM14.341 11.336c-0.363-0.186-0.815-0.043-1.008 0.32-0.034 0.066-0.869 1.593-3.332 1.593-2.451 0-3.291-1.513-3.333-1.592-0.188-0.365-0.632-0.514-1.004-0.329-0.37 0.186-0.52 0.636-0.335 1.007 0.050 0.099 1.248 2.414 4.672 2.414 3.425 0 4.621-2.316 4.67-2.415 0.184-0.367 0.036-0.81-0.33-0.998z"></path>
</symbol>
</defs>
</svg>
